<?xml version="1.0" encoding="utf-8"?>
<!-- Generator: Adobe Illustrator 19.2.0, SVG Export Plug-In . SVG Version: 6.00 Build 0)  -->
<svg version="1.1" id="primary_logo_small" xmlns="http://www.w3.org/2000/svg" xmlns:xlink="http://www.w3.org/1999/xlink" x="0px"
	 y="0px" viewBox="0 0 66.4 25.6" style="enable-background:new 0 0 66.4 25.6;" xml:space="preserve">
<style type="text/css">
	.st0{clip-path:url(#SVGID_2_);}
	.st1{fill:#00B388;}
</style>
<g>
	<g>
		<defs>
			<rect id="SVGID_1_" width="66.4" height="25.6"/>
		</defs>
		<clipPath id="SVGID_2_">
			<use xlink:href="#SVGID_1_"  style="overflow:visible;"/>
		</clipPath>
		<g class="st0">
			<path id="element" class="st1" d="M2.3,1.5v5.5l0,0h19.3V1.5H2.3z M20.4,5.9H3.5V2.7h16.9V5.9z"/>
			<path d="M5.8,18.6v0.7H3.1v1.7h2.5v0.7H3.1v1.8h2.7v0.7H2.3v-5.5H5.8L5.8,18.6z M7.7,24.1H7V20h0.7v0.8C8.1,20.3,8.5,20,9.1,20
				c0.9,0,1.5,0.6,1.5,1.6v2.6H9.9v-2.6c0-0.5-0.3-0.8-0.9-0.8c-0.5,0-1,0.4-1.2,0.8v2.6H7.7z M13.6,24.2c-1,0-1.4-0.4-1.4-1.3v-2.2
				h-0.8V20h0.8v-1H13v1h1.2v0.7H13v2.2c0,0.5,0.3,0.6,0.7,0.6c0.1,0,0.3,0,0.4-0.1h0.1v0.7C14,24.2,13.9,24.2,13.6,24.2z
				 M16.9,24.2c-1.4,0-2.2-0.8-2.2-2.1c0-1.3,0.8-2.2,2-2.2s1.8,0.8,1.8,2v0.4h-3c0.1,0.8,0.7,1.2,1.5,1.2c0.5,0,0.8-0.1,1.2-0.3
				h0.1v0.6C17.9,24.1,17.4,24.2,16.9,24.2z M15.5,21.8h2.2c-0.1-0.7-0.4-1.2-1.1-1.2C16.1,20.6,15.6,21.1,15.5,21.8z M21.8,20.8
				c-0.1-0.1-0.3-0.1-0.4-0.1c-0.5,0-0.8,0.3-1,0.9v2.5h-0.7V20h0.7v0.9c0.3-0.7,0.7-0.9,1.2-0.9c0.2,0,0.3,0.1,0.4,0.1v0.8H21.8
				L21.8,20.8z M23.4,23.5v2.1h-0.7V20h0.7v0.7c0.3-0.4,0.7-0.8,1.4-0.8c1.3,0,1.9,1,1.9,2.1c0,1.2-0.6,2.1-1.9,2.1
				C24.1,24.2,23.6,23.8,23.4,23.5z M25.8,22c0-0.8-0.5-1.4-1.3-1.4c-0.5,0-0.9,0.3-1.1,0.7v1.4c0.3,0.4,0.6,0.7,1.1,0.7
				C25.4,23.5,25.8,22.9,25.8,22z M29.9,20.8c-0.1-0.1-0.3-0.1-0.4-0.1c-0.5,0-0.8,0.3-1,0.9v2.5h-0.8V20h0.7v0.9
				c0.3-0.7,0.7-0.9,1.2-0.9c0.2,0,0.3,0.1,0.4,0.1v0.8H29.9L29.9,20.8z M31.2,19.7c-0.3,0-0.5-0.3-0.5-0.5c0-0.3,0.3-0.5,0.5-0.5
				c0.3,0,0.5,0.2,0.5,0.5C31.7,19.4,31.5,19.7,31.2,19.7z M31.6,24.1h-0.7V20h0.7V24.1z M32.8,23.2L32.8,23.2
				c0.4,0.3,0.9,0.4,1.4,0.4c0.4,0,0.8-0.2,0.8-0.5s-0.3-0.4-1-0.7c-0.6-0.2-1.2-0.4-1.2-1.2c0-0.8,0.7-1.3,1.5-1.3
				c0.5,0,0.9,0.1,1.3,0.3V21h-0.1c-0.3-0.3-0.7-0.4-1.2-0.4c-0.5,0-0.7,0.2-0.7,0.5c0,0.3,0.3,0.4,0.9,0.6c0.6,0.2,1.3,0.4,1.3,1.2
				c0,0.8-0.7,1.3-1.6,1.3c-0.5,0-1.1-0.2-1.4-0.4L32.8,23.2L32.8,23.2z M38.9,24.2c-1.4,0-2.2-0.8-2.2-2.1c0-1.3,0.8-2.2,2-2.2
				c1.2,0,1.8,0.8,1.8,2v0.4h-3c0.1,0.8,0.7,1.2,1.5,1.2c0.5,0,0.8-0.1,1.2-0.3h0.1v0.6C39.7,24.1,39.3,24.2,38.9,24.2z M37.4,21.8
				h2.2c-0.1-0.7-0.4-1.2-1.1-1.2C38,20.6,37.5,21.1,37.4,21.8z M7,10.7v5.5H5.8v-2.3H3.5v2.3H2.3v-5.5h1.2v2.2h2.2v-2.2
				C5.8,10.7,7,10.7,7,10.7z M10.3,16.3c-1.5,0-2.4-0.8-2.4-2.1S8.7,12,10,12c1.3,0,2,0.8,2,2.1v0.5H9.2c0.1,0.7,0.6,0.8,1.2,0.8
				c0.5,0,0.8-0.1,1.3-0.3h0.2V16C11.3,16.2,10.8,16.3,10.3,16.3z M9.2,13.8h1.7c-0.1-0.6-0.3-0.9-0.8-0.9C9.6,12.9,9.2,13,9.2,13.8
				z M13.4,16.2l-0.8-4V12h1.1l0.5,2.6l0.1,0.8l0.2-0.8L15,12h1.3l0.6,2.6l0.2,0.8l0.2-0.8l0.5-2.6h1v0.2l-0.9,4h-1.6L15.7,14
				l-0.2-0.8L15.4,14L15,16.2H13.4z M20.8,16.3c-0.9,0-1.3-0.4-1.3-1.4v-4.3h1.2v4.2c0,0.3,0.1,0.4,0.4,0.4c0.1,0,0.2-0.1,0.3-0.1
				l0,0v1C21.2,16.3,21,16.3,20.8,16.3z M24.1,16.3c-1.5,0-2.4-0.8-2.4-2.1s0.8-2.2,2.1-2.2c1.3,0,2,0.8,2,2.1v0.5H23
				c0.1,0.7,0.6,0.8,1.2,0.8c0.5,0,0.8-0.1,1.3-0.3h0.2V16C25.2,16.2,24.6,16.3,24.1,16.3z M23,13.8h1.7c-0.1-0.6-0.3-0.9-0.8-0.9
				C23.4,12.9,23.1,13,23,13.8z M29.9,14.7V13h-1.8v1.6c0,0.4,0.2,0.6,0.5,0.6c0.1,0,0.3-0.1,0.4-0.1h0.1v1
				c-0.2,0.1-0.4,0.1-0.7,0.1c-1,0-1.5-0.5-1.5-1.6V13h-0.7v-1h0.7v-1h1.2v1h1.8v-1h1.2v1h1v1h-1v1.6c0,0.4,0.2,0.6,0.5,0.6
				c0.1,0,0.3-0.1,0.4-0.1h0.1v1c-0.2,0.1-0.4,0.1-0.7,0.1C30.3,16.3,29.9,15.8,29.9,14.7z M35.7,14.5v1.7h-1.2v-5.5h2.1
				c1.2,0,2,0.7,2,1.9s-0.8,1.9-2,1.9H35.7L35.7,14.5z M36.5,11.7h-0.8v1.8h0.8c0.6,0,0.9-0.4,0.9-0.9
				C37.4,12.1,37.1,11.7,36.5,11.7z M41.7,15.6c-0.3,0.5-0.7,0.7-1.3,0.7c-0.8,0-1.4-0.4-1.4-1.3s0.6-1.3,1.6-1.3
				c0.4,0,0.7,0.1,1,0.1v-0.3c0-0.4-0.3-0.6-0.9-0.6c-0.5,0-0.8,0.1-1.2,0.3h-0.2v-0.9c0.3-0.2,0.9-0.3,1.4-0.3c1.3,0,2,0.6,2,1.6
				v2.6h-1.2V15.6L41.7,15.6z M41.7,14.9v-0.5c-0.2-0.1-0.5-0.1-0.7-0.1c-0.5,0-0.7,0.2-0.7,0.6s0.3,0.5,0.6,0.5
				C41.2,15.4,41.6,15.2,41.7,14.9z M43.8,14.1c0-1.4,0.9-2.2,2.2-2.2c0.5,0,0.9,0.1,1.2,0.3v1H47c-0.3-0.2-0.5-0.3-0.9-0.3
				c-0.6,0-1.1,0.4-1.1,1.2c0,0.7,0.5,1.1,1.1,1.1c0.4,0,0.6-0.1,0.9-0.3h0.1v1c-0.3,0.2-0.7,0.3-1.2,0.3
				C44.7,16.3,43.8,15.5,43.8,14.1z M49.2,14.2v2H48v-5.5h1.2v3.1l0.3-0.4l1.1-1.4h1.3v0.2l-1.6,1.7l1.6,2.1v0.2h-1.4l-1-1.5
				L49.2,14.2z M54.9,15.6c-0.3,0.5-0.7,0.7-1.3,0.7c-0.8,0-1.4-0.4-1.4-1.3s0.6-1.3,1.6-1.3c0.4,0,0.7,0.1,1,0.1v-0.3
				c0-0.4-0.3-0.6-0.9-0.6c-0.5,0-0.8,0.1-1.2,0.3h-0.2v-0.9c0.3-0.2,0.9-0.3,1.4-0.3c1.3,0,2,0.6,2,1.6v2.6h-1.2V15.6L54.9,15.6z
				 M54.8,14.9v-0.5c-0.2-0.1-0.5-0.1-0.7-0.1c-0.5,0-0.7,0.2-0.7,0.6s0.3,0.5,0.6,0.5C54.4,15.4,54.7,15.2,54.8,14.9z M58.3,12.9
				c0.2-0.6,0.7-0.9,1.2-0.9c0.2,0,0.3,0.1,0.4,0.1v1.2h-0.1c-0.1-0.1-0.3-0.1-0.4-0.1c-0.5,0-0.8,0.2-0.9,0.7v2.4h-1.2V12h1.2
				L58.3,12.9L58.3,12.9z M63.3,15.6c-0.3,0.4-0.7,0.7-1.3,0.7c-1.2,0-1.8-0.9-1.8-2.2c0-1.3,0.7-2.2,1.8-2.2c0.5,0,0.9,0.2,1.2,0.6
				v-1.9h1.2v5.5h-1.2V15.6L63.3,15.6z M63.2,14.9v-1.5c-0.2-0.3-0.5-0.5-0.9-0.5c-0.6,0-0.9,0.4-0.9,1.2s0.4,1.2,0.9,1.2
				C62.7,15.3,63,15.2,63.2,14.9z"/>
		</g>
	</g>
</g>
</svg>
